{"title":"Pride (2014) 720p BDRip x264-pong","uid":15568476,"size":904993177,"categoryP":"video","categoryS":"movies","magnet":"?xt=urn:btih:687b7582c2c687e455a5945c7a25dfde9979b073&amp;dn=Pride+%282014%29+720p+BDRip+x264-pong&amp;tr=udp%3A%2F%2Ftracker.leechers-paradise.org%3A6969&amp;tr=udp%3A%2F%2Fzer0day.ch%3A1337&amp;tr=udp%3A%2F%2Fopen.demonii.com%3A1337&amp;tr=udp%3A%2F%2Ftracker.coppersurfer.tk%3A6969&amp;tr=udp%3A%2F%2Fexodus.desync.com%3A6969","seeders":4,"leechers":1,"uploader":"Pongydog","files":1,"time":1471230009,"description":"http://www.imdb.com/title/tt3169706/\r\n\r\nU.K. gay activists work to help miners during their lengthy strike of the National Union of Mineworkers in the summer of 1984. \r\n\r\nDirector: Matthew Warchus  \r\n\r\nWriter: Stephen Beresford (screenplay)  \r\n\r\nStars: Bill Nighy,  Imelda Staunton,  Dominic West  | See full cast &amp; crew » \r\n\r\nsource: Pride 2014 Blu-ray 1080p x264 DTS-HighCode\r\n\r\n----------\r\nGeneral\r\nComplete name                            : C:Usersuser1VideosPride (2014) 720p BDRip x264-pong.mp4\r\nFormat                                   : MPEG-4\r\nFormat profile                           : Base Media\r\nCodec ID                                 : isom (isom/iso2/avc1/mp41)\r\nFile size                                : 863 MiB\r\nDuration                                 : 2h 1mn\r\nOverall bit rate                         : 994 Kbps\r\nEncoded date                             : UTC 2016-08-14 14:32:12\r\nTagged date                              : UTC 2016-08-14 14:32:12\r\nWriting application                      : Lavf57.36.100\r\n\r\nVideo\r\nID                                       : 1\r\nFormat                                   : AVC\r\nFormat/Info                              : Advanced Video Codec\r\nFormat profile                           :   \r\nFormat settings, CABAC                   : Yes\r\nFormat settings, ReFrames                : 8 frames\r\nCodec ID                                 : avc1\r\nCodec ID/Info                            : Advanced Video Coding\r\nDuration                                 : 2h 0mn\r\nBit rate                                 : 900 Kbps\r\nWidth                                    : 1 280 pixels\r\nHeight                                   : 534 pixels\r\nDisplay aspect ratio                     : 2.40:1\r\nOriginal display aspect ratio            : 2.40:1\r\nFrame rate mode                          : Constant\r\nFrame rate                               : 23.976 (24000/1001) fps\r\nColor space                              : YUV\r\nChroma subsampling                       : 4:2:0\r\nBit depth                                : 8 bits\r\nScan type                                : Progressive\r\nBits/(Pixel*Frame)                       : 0.055\r\nStream size                              : 774 MiB (90%)\r\nWriting library                          : x264 core 148 r2643\r\nEncoding settings                        : cabac=1 / ref=8 / deblock=1:0:0 / analyse=0x3:0x133 / me=umh / subme=9 / psy=1 / psy_rd=1.00:0.00 / mixed_ref=0 / me_range=24 / chroma_me=1 / trellis=2 / 8x8dct=1 / cqm=0 / deadzone=21,11 / fast_pskip=1 / chroma_qp_offset=-2 / threads=3 / lookahead_threads=1 / sliced_threads=0 / nr=0 / decimate=1 / interlaced=0 / bluray_compat=0 / constrained_intra=0 / bframes=8 / b_pyramid=0 / b_adapt=2 / b_bias=0 / direct=3 / weightb=1 / open_gop=0 / weightp=2 / keyint=239 / keyint_min=23 / scenecut=40 / intra_refresh=0 / rc_lookahead=60 / rc=2pass / mbtree=1 / bitrate=900 / ratetol=1.0 / qcomp=0.60 / qpmin=10 / qpmax=69 / qpstep=4 / cplxblur=20.0 / qblur=0.5 / vbv_maxrate=2400 / vbv_bufsize=24000 / nal_hrd=none / filler=0 / ip_ratio=1.40 / aq=3:1.00\r\nEncoded date                             : UTC 2016-08-14 14:32:12\r\nTagged date                              : UTC 2016-08-14 14:32:12\r\nMenus                                    : 3\r\n\r\nAudio\r\nID                                       : 2\r\nFormat                                   : AAC\r\nFormat/Info                              : Advanced Audio Codec\r\nFormat profile                           : LC\r\nCodec ID                                 : 40\r\nDuration                                 : 2h 1mn\r\nBit rate mode                            : Constant\r\nBit rate                                 : 96.0 Kbps\r\nChannel(s)                               : 2 channels\r\nChannel positions                        : Front: L R\r\nSampling rate                            : 48.0 KHz\r\nFrame rate                               : 46.875 fps (1024 spf)\r\nCompression mode                         : Lossy\r\nStream size                              : 83.4 MiB (10%)\r\nLanguage                                 : English\r\nDefault                                  : Yes\r\nAlternate group                          : 1\r\nEncoded date                             : UTC 2016-08-14 14:32:12\r\nTagged date                              : UTC 2016-08-14 14:32:12\r\nMenus                                    : 3","torrent":{"xt":"urn:btih:687b7582c2c687e455a5945c7a25dfde9979b073","amp;dn":"Pride+%282014%29+720p+BDRip+x264-pong","amp;tr":["udp%3A%2F%2Ftracker.leechers-paradise.org%3A6969","udp%3A%2F%2Fzer0day.ch%3A1337","udp%3A%2F%2Fopen.demonii.com%3A1337","udp%3A%2F%2Ftracker.coppersurfer.tk%3A6969","udp%3A%2F%2Fexodus.desync.com%3A6969"],"infoHash":"687b7582c2c687e455a5945c7a25dfde9979b073","infoHashBuffer":{"type":"Buffer","data":[104,123,117,130,194,198,135,228,85,165,148,92,122,37,223,222,153,121,176,115]},"announce":[],"urlList":[]}}